<svg width="183" height="83" viewBox="0 0 183 83" fill="none" xmlns="http://www.w3.org/2000/svg">
<path d="M31.79 33.775C30.8 31.8683 29.425 30.4383 27.665 29.485C25.905 28.495 23.87 28 21.56 28C19.03 28 16.775 28.5683 14.795 29.705C12.815 30.8417 11.2567 32.455 10.12 34.545C9.02 36.635 8.47 39.055 8.47 41.805C8.47 44.555 9.02 46.9933 10.12 49.12C11.2567 51.21 12.815 52.8233 14.795 53.96C16.775 55.0967 19.03 55.665 21.56 55.665C24.97 55.665 27.7383 54.7117 29.865 52.805C31.9917 50.8983 33.2933 48.3133 33.77 45.05H19.415V40.045H40.48V44.94C40.0767 47.91 39.0133 50.6417 37.29 53.135C35.6033 55.6283 33.385 57.6267 30.635 59.13C27.9217 60.5967 24.8967 61.33 21.56 61.33C17.9667 61.33 14.685 60.505 11.715 58.855C8.745 57.1683 6.38 54.84 4.62 51.87C2.89667 48.9 2.035 45.545 2.035 41.805C2.035 38.065 2.89667 34.71 4.62 31.74C6.38 28.77 8.745 26.46 11.715 24.81C14.7217 23.1233 18.0033 22.28 21.56 22.28C25.63 22.28 29.2417 23.2883 32.395 25.305C35.585 27.285 37.895 30.1083 39.325 33.775H31.79ZM51.8341 35.095C52.7507 33.555 53.9607 32.3633 55.4641 31.52C57.0041 30.64 58.8191 30.2 60.9091 30.2V36.69H59.3141C56.8574 36.69 54.9874 37.3133 53.7041 38.56C52.4574 39.8067 51.8341 41.97 51.8341 45.05V61H45.5641V30.695H51.8341V35.095ZM117.399 55.39L125.979 30.695H132.634L121.084 61H113.604L102.109 30.695H108.819L117.399 55.39ZM139.463 26.68C138.327 26.68 137.373 26.295 136.603 25.525C135.833 24.755 135.448 23.8017 135.448 22.665C135.448 21.5283 135.833 20.575 136.603 19.805C137.373 19.035 138.327 18.65 139.463 18.65C140.563 18.65 141.498 19.035 142.268 19.805C143.038 20.575 143.423 21.5283 143.423 22.665C143.423 23.8017 143.038 24.755 142.268 25.525C141.498 26.295 140.563 26.68 139.463 26.68ZM142.543 30.695V61H136.273V30.695H142.543ZM147.585 45.71C147.585 42.6667 148.209 39.9717 149.455 37.625C150.739 35.2783 152.462 33.4633 154.625 32.18C156.825 30.86 159.245 30.2 161.885 30.2C164.269 30.2 166.34 30.6767 168.1 31.63C169.897 32.5467 171.327 33.7017 172.39 35.095V30.695H178.715V61H172.39V56.49C171.327 57.92 169.879 59.1117 168.045 60.065C166.212 61.0183 164.122 61.495 161.775 61.495C159.172 61.495 156.789 60.835 154.625 59.515C152.462 58.1583 150.739 56.2883 149.455 53.905C148.209 51.485 147.585 48.7533 147.585 45.71ZM172.39 45.82C172.39 43.73 171.95 41.915 171.07 40.375C170.227 38.835 169.109 37.6617 167.715 36.855C166.322 36.0483 164.819 35.645 163.205 35.645C161.592 35.645 160.089 36.0483 158.695 36.855C157.302 37.625 156.165 38.78 155.285 40.32C154.442 41.8233 154.02 43.62 154.02 45.71C154.02 47.8 154.442 49.6333 155.285 51.21C156.165 52.7867 157.302 53.9967 158.695 54.84C160.125 55.6467 161.629 56.05 163.205 56.05C164.819 56.05 166.322 55.6467 167.715 54.84C169.109 54.0333 170.227 52.86 171.07 51.32C171.95 49.7433 172.39 47.91 172.39 45.82Z" fill="#F2E7D4"/>
<path d="M82 27.5C71.7597 27.5 63.5003 35.4017 63.5 45.0986C63.5 54.7957 71.7596 62.6982 82 62.6982C92.2404 62.6982 100.5 54.7957 100.5 45.0986C100.5 35.4017 92.2403 27.5 82 27.5Z" fill="#F8A200" stroke="#E5D6BC"/>
<path d="M82.0013 61.6957C91.6066 61.6957 99.4205 54.2504 99.4205 45.0991C99.4205 35.9478 91.6066 28.502 82.0013 28.502C72.396 28.502 64.5815 35.9473 64.5815 45.0991C64.5815 54.2509 72.396 61.6957 82.0013 61.6957Z" fill="#F8DC91"/>
<path d="M82.0014 60.1938C90.7348 60.1938 97.84 53.4224 97.84 45.0991C97.84 36.7753 90.7348 30.0039 82.0014 30.0039C73.2681 30.0039 66.1624 36.7753 66.1624 45.0991C66.1624 53.4224 73.2676 60.1938 82.0014 60.1938Z" fill="#FE871E"/>
<path d="M82.0009 45.0975L85.7636 34.1933C86.2133 32.89 85.4459 31.4931 84.0503 31.0736L84.0329 31.0682C82.7046 30.669 81.2753 30.67 79.9475 31.0711C78.5539 31.4922 77.789 32.888 78.2382 34.1894L82.0009 45.0975Z" fill="#FA7501"/>
<path d="M82.0011 45.0975L94.1182 42.6513C95.5664 42.3591 96.4939 41.0476 96.19 39.7225L96.1864 39.706C95.8973 38.4448 95.1814 37.3033 94.1412 36.4428C93.0489 35.5397 91.3565 35.6265 90.3591 36.6362L82.0011 45.0975Z" fill="#FA7501"/>
<path d="M82.0002 45.1035L90.3546 53.562C91.3531 54.5726 93.0475 54.6584 94.1392 53.7529L94.153 53.7417C95.1922 52.8798 95.9061 51.7373 96.1932 50.4757C96.4945 49.1515 95.567 47.8429 94.1209 47.5507L82.0002 45.1035Z" fill="#FA7501"/>
<path d="M82.0009 45.1035L78.2387 56.0082C77.789 57.3115 78.5564 58.7084 79.952 59.1279L79.9694 59.1333C81.2977 59.5325 82.727 59.5315 84.0548 59.1304C85.4484 58.7093 86.2133 57.3135 85.7641 56.0121L82.0009 45.1035Z" fill="#FA7501"/>
<path d="M82 45.1035L69.8829 47.5498C68.4347 47.8419 67.5072 49.1535 67.8111 50.4786L67.8146 50.4951C68.1038 51.7562 68.8197 52.8977 69.8599 53.7582C70.9522 54.6613 72.6446 54.5746 73.642 53.5649L82 45.1035Z" fill="#FA7501"/>
<path d="M82 45.1024L73.6455 36.6439C72.6471 35.6333 70.9527 35.5475 69.8609 36.453L69.8472 36.4642C68.808 37.3261 68.0941 38.4686 67.807 39.7302C67.5056 41.0544 68.4332 42.363 69.8793 42.6552L82 45.1024Z" fill="#FA7501"/>
<path d="M82.0012 35.313C82.5641 35.313 83.021 34.8788 83.021 34.344V32.2717C83.021 31.7368 82.5641 31.3027 82.0012 31.3027C81.4382 31.3027 80.9813 31.7368 80.9813 32.2717V34.344C80.9813 34.8793 81.4377 35.313 82.0012 35.313Z" fill="white"/>
<path d="M91.838 40.9414C92.0078 40.9414 92.1801 40.9012 92.3387 40.8159L94.2692 39.7796C94.7593 39.5165 94.9326 38.9254 94.6552 38.4593C94.3784 37.9932 93.7563 37.829 93.2657 38.0925L91.3352 39.1289C90.8451 39.392 90.6718 39.9831 90.9492 40.4492C91.1368 40.7641 91.482 40.9414 91.838 40.9414Z" fill="white"/>
<path d="M94.2952 52.2338C94.6512 52.2338 94.9969 52.0565 95.1845 51.7411C95.4614 51.275 95.2886 50.6839 94.798 50.4208L92.8675 49.385C92.3764 49.1224 91.7548 49.2861 91.478 49.7522C91.2011 50.2183 91.3739 50.8094 91.8645 51.0725L93.795 52.1084C93.9531 52.1936 94.1254 52.2338 94.2952 52.2338Z" fill="white"/>
<path d="M82.0002 58.8935C82.5631 58.8935 83.02 58.4594 83.02 57.9245V55.8523C83.02 55.3174 82.5631 54.8833 82.0002 54.8833C81.4372 54.8833 80.9804 55.3174 80.9804 55.8523V57.9245C80.9804 58.4594 81.4372 58.8935 82.0002 58.8935Z" fill="white"/>
<path d="M69.7047 52.2343C69.8745 52.2343 70.0468 52.1941 70.2054 52.1088L72.1359 51.0724C72.626 50.8094 72.7993 50.2183 72.5219 49.7522C72.2451 49.2866 71.623 49.1218 71.1324 49.3854L69.2019 50.4218C68.7118 50.6848 68.5385 51.2759 68.8159 51.742C69.0035 52.0574 69.3492 52.2343 69.7047 52.2343Z" fill="white"/>
<path d="M71.6334 40.9401C71.9893 40.9401 72.3345 40.7627 72.5222 40.4473C72.7991 39.9812 72.6262 39.3901 72.1362 39.1271L70.2056 38.0907C69.7146 37.8266 69.093 37.9919 68.8161 38.4575C68.5392 38.9236 68.7121 39.5147 69.2021 39.7777L71.1326 40.8141C71.2912 40.8994 71.4636 40.9401 71.6334 40.9401Z" fill="white"/>
<path d="M82.0007 49.2324C79.6061 49.2324 77.6649 47.3803 77.6649 45.0957C77.6649 42.811 79.6061 40.959 82.0007 40.959C84.3953 40.959 86.3365 42.811 86.3365 45.0957C86.3365 47.3803 84.3953 49.2324 82.0007 49.2324Z" fill="#F5D7D5"/>
</svg>
